Coordinates
version=1
nRows=43
nColumns=12
inDegrees=yes

Units are S.I. units (second, meters, Newtons, ...)
Angles are in degrees

endheader
time	SC_y	SC_z	SC_x	AC_y	AC_z	AC_x	GH_y	GH_z	GH_yy	EL_x	PS_y
       0.0              -38.32          36.48           83.7          49.24         -15.21         -17.27         -28.01          5.374         -127.0           92.0           51.0
   0.04166              -38.32          36.48           83.7          49.24          -15.2         -17.27         -28.02          5.376         -127.0           92.0          51.02
   0.08333              -38.32          36.47          83.69          49.24          -15.2         -17.27         -28.04          5.379         -127.0          92.01          51.04
     0.125              -38.33          36.47          83.69          49.24          -15.2         -17.27         -28.05          5.381         -126.9          92.01          51.05
    0.1667              -38.33          36.47          83.68          49.24          -15.2         -17.27         -28.06          5.384         -126.9          92.01          51.07
    0.2083              -38.33          36.46          83.67          49.25         -15.19         -17.27         -28.08          5.388         -126.9          92.02          51.09
      0.25              -38.33          36.46          83.67          49.25         -15.19         -17.27         -28.09          5.391         -126.8          92.03          51.11
    0.2916              -38.33          36.46          83.66          49.25         -15.19         -17.27         -28.11          5.395         -126.8          92.03          51.13
    0.3333              -38.33          36.45          83.65          49.25         -15.18         -17.27         -28.12          5.399         -126.7          92.04          51.16
     0.375              -38.33          36.45          83.64          49.26         -15.18         -17.27         -28.14          5.403         -126.7          92.04          51.18
    0.4166              -38.33          36.44          83.63          49.26         -15.17         -17.27         -28.16          5.407         -126.6          92.05          51.21
    0.4583              -38.33          36.44          83.62          49.26         -15.17         -17.27         -28.18          5.412         -126.6          92.06          51.24
       0.5              -38.33          36.43          83.61          49.26         -15.16         -17.27         -28.21          5.417         -126.5          92.07          51.27
    0.5416              -38.33          36.42          83.59          49.27         -15.16         -17.27         -28.23          5.423         -126.5          92.08          51.31
    0.5833              -38.33          36.42          83.58          49.27         -15.15         -17.26         -28.26          5.429         -126.4          92.09          51.35
     0.625              -38.33          36.41          83.57          49.28         -15.15         -17.26         -28.29          5.435         -126.3           92.1          51.39
    0.6666              -38.33           36.4          83.55          49.28         -15.14         -17.26         -28.32          5.443         -126.3          92.11          51.43
    0.7083              -38.33          36.39          83.53          49.28         -15.13         -17.26         -28.36           5.45         -126.2          92.12          51.48
    0.7499              -38.34          36.38          83.51          49.29         -15.13         -17.26         -28.39          5.459         -126.1          92.13          51.53
    0.7916              -38.34          36.37          83.49          49.29         -15.12         -17.26         -28.43          5.468         -126.0          92.15          51.59
    0.8333              -38.34          36.36          83.47           49.3         -15.11         -17.25         -28.48          5.478         -125.9          92.16          51.65
    0.8749              -38.34          36.35          83.45          49.31          -15.1         -17.25         -28.53           5.49         -125.7          92.18          51.72
    0.9166              -38.34          36.33          83.42          49.32         -15.08         -17.25         -28.59          5.502         -125.6           92.2           51.8
    0.9583              -38.34          36.32          83.39          49.32         -15.07         -17.25         -28.65          5.516         -125.4          92.22          51.88
    0.9999              -38.34           36.3          83.35          49.33         -15.06         -17.24         -28.72          5.531         -125.3          92.25          51.98
     1.042              -38.35          36.28          83.32          49.34         -15.04         -17.24         -28.79          5.548         -125.1          92.27          52.08
     1.083              -38.35          36.26          83.27          49.35         -15.02         -17.24         -28.88          5.568         -124.9          92.31           52.2
     1.125              -38.35          36.24          83.23          49.37          -15.0         -17.23         -28.97          5.589         -124.6          92.34          52.34
     1.167              -38.36          36.21          83.17          49.38         -14.98         -17.23         -29.08          5.614         -124.3          92.38          52.49
     1.208              -38.36          36.18          83.11           49.4         -14.95         -17.22          -29.2          5.641         -124.0          92.42          52.66
      1.25              -38.36          36.14          83.04          49.42         -14.92         -17.22         -29.34          5.673         -123.7          92.47          52.85
     1.292              -38.37           36.1          82.96          49.44         -14.89         -17.21          -29.5          5.709         -123.3          92.53          53.08
     1.333              -38.37          36.05          82.87          49.46         -14.85          -17.2         -29.69          5.751         -122.8           92.6          53.33
     1.375              -38.38           36.0          82.76          49.49          -14.8          -17.2         -29.91          5.799         -122.3          92.67          53.63
     1.417              -38.39          35.94          82.63          49.53         -14.75         -17.18         -30.16          5.856         -121.6          92.76          53.98
     1.458               -38.4          35.86          82.48          49.57         -14.69         -17.17         -30.46          5.923         -120.9          92.87           54.4
       1.5              -38.41          35.77          82.31          49.62         -14.61         -17.16         -30.81          6.003         -120.0          92.99          54.89
     1.542              -38.42          35.66          82.09          49.67         -14.52         -17.14         -31.24          6.098         -118.9          93.15          55.48
     1.583              -38.43          35.53          81.84          49.74         -14.41         -17.12         -31.75          6.214         -117.7          93.33          56.19
     1.625              -38.45          35.37          81.53          49.83         -14.28         -17.09         -32.38          6.355         -116.1          93.55          57.06
     1.667              -38.48          35.18          81.14          49.93         -14.12         -17.06         -33.15          6.529         -114.2          93.83          58.14
     1.708               -38.5          34.93          80.66          50.06         -13.91         -17.02         -34.12          6.746         -111.7          94.17          59.48
      1.75              -38.54          34.62          80.05          50.23         -13.66         -16.97         -35.33           7.02         -108.7          94.61          61.17
